HIERARCHY
ROOT Hips
{
	OFFSET 0.000000 0.000000 0.000000
	CHANNELS 6 Xposition Yposition Zposition Zrotation Yrotation Xrotation 
	JOINT Spine1
	{
		OFFSET -0.013727 5.003763 -0.053727
		CHANNELS 3 Zrotation Yrotation Xrotation
		JOINT Spine2
		{
			OFFSET -0.000000 7.125301 -0.029825
			CHANNELS 3 Zrotation Yrotation Xrotation
			JOINT Chest
			{
				OFFSET -0.000001 7.550065 -0.815971
				CHANNELS 3 Zrotation Yrotation Xrotation
				JOINT Neck1
				{
					OFFSET -0.181676 26.311296 -0.553349
					CHANNELS 3 Zrotation Yrotation Xrotation
					JOINT Neck2
					{
						OFFSET -0.000003 7.709399 2.302585
						CHANNELS 3 Zrotation Yrotation Xrotation
						JOINT Head
						{
							OFFSET -0.000005 6.128913 1.953709
							CHANNELS 3 Zrotation Yrotation Xrotation
							JOINT HeadEnd
							{
								OFFSET 0.003598 16.065401 -1.835379
								CHANNELS 3 Zrotation Yrotation Xrotation
								End Site
								{
									OFFSET 0.000000 0.000000 0.000000
								}
							}
							JOINT Jaw
							{
								OFFSET 0.002637 0.475591 3.094941
								CHANNELS 3 Zrotation Yrotation Xrotation
								End Site
								{
									OFFSET 0.000000 0.000000 0.000000
								}
							}
							JOINT LeftEye
							{
								OFFSET 3.206381 5.380207 7.586883
								CHANNELS 3 Zrotation Yrotation Xrotation
								End Site
								{
									OFFSET 0.000000 0.000000 0.000000
								}
							}
							JOINT RightEye
							{
								OFFSET -3.222440 5.361867 7.558233
								CHANNELS 3 Zrotation Yrotation Xrotation
								End Site
								{
									OFFSET 0.000000 0.000000 0.000000
								}
							}
						}
					}
				}
				JOINT LeftShoulder
				{
					OFFSET 1.621652 23.237164 5.113413
					CHANNELS 3 Zrotation Yrotation Xrotation
					JOINT LeftArm
					{
						OFFSET 14.919845 -0.000000 -5.502326
						CHANNELS 3 Zrotation Yrotation Xrotation
						JOINT LeftForeArm
						{
							OFFSET 28.739313 0.000003 -0.002588
							CHANNELS 3 Zrotation Yrotation Xrotation
							JOINT LeftHand
							{
								OFFSET 27.093979 -0.000004 0.002608
								CHANNELS 3 Zrotation Yrotation Xrotation
								JOINT LeftHandThumb1
								{
									OFFSET 2.276481 -1.392046 3.191413
									CHANNELS 3 Zrotation Yrotation Xrotation
									JOINT LeftHandThumb2
									{
										OFFSET 4.012842 -1.828126 1.641656
										CHANNELS 3 Zrotation Yrotation Xrotation
										JOINT LeftHandThumb3
										{
											OFFSET 2.798516 0.000001 -0.000003
											CHANNELS 3 Zrotation Yrotation Xrotation
											JOINT LeftHandThumbEnd
											{
												OFFSET 3.180791 -0.000002 0.000003
												CHANNELS 3 Zrotation Yrotation Xrotation
												End Site
												{
													OFFSET 0.000000 0.000000 0.000000
												}
											}
										}
									}
								}
								JOINT LeftHandIndex1
								{
									OFFSET 3.247554 -0.531998 2.296170
									CHANNELS 3 Zrotation Yrotation Xrotation
									JOINT LeftHandIndex2
									{
										OFFSET 6.364580 0.012062 0.178599
										CHANNELS 3 Zrotation Yrotation Xrotation
										JOINT LeftHandIndex3
										{
											OFFSET 3.662367 0.000001 0.000001
											CHANNELS 3 Zrotation Yrotation Xrotation
											JOINT LeftHandIndex4
											{
												OFFSET 2.329241 0.000001 0.000002
												CHANNELS 3 Zrotation Yrotation Xrotation
												JOINT LeftHandIndexEnd
												{
													OFFSET 2.759619 -0.180539 -0.113023
													CHANNELS 3 Zrotation Yrotation Xrotation
													End Site
													{
														OFFSET 0.000000 0.000000 0.000000
													}
												}
											}
										}
									}
								}
								JOINT LeftHandMiddle1
								{
									OFFSET 3.163499 0.240982 1.000332
									CHANNELS 3 Zrotation Yrotation Xrotation
									JOINT LeftHandMiddle2
									{
										OFFSET 6.190778 -0.259276 -1.002549
										CHANNELS 3 Zrotation Yrotation Xrotation
										JOINT LeftHandMiddle3
										{
											OFFSET 4.356523 -0.000006 0.000001
											CHANNELS 3 Zrotation Yrotation Xrotation
											JOINT LeftHandMiddle4
											{
												OFFSET 2.996875 -0.000007 0.000000
												CHANNELS 3 Zrotation Yrotation Xrotation
												JOINT LeftHandMiddleEnd
												{
													OFFSET 2.304294 -0.294570 -0.031739
													CHANNELS 3 Zrotation Yrotation Xrotation
													End Site
													{
														OFFSET 0.000000 0.000000 0.000000
													}
												}
											}
										}
									}
								}
								JOINT LeftHandRing1
								{
									OFFSET 2.882642 -0.053650 -0.322543
									CHANNELS 3 Zrotation Yrotation Xrotation
									JOINT LeftHandRing2
									{
										OFFSET 5.854542 -0.486203 -1.373841
										CHANNELS 3 Zrotation Yrotation Xrotation
										JOINT LeftHandRing3
										{
											OFFSET 4.350581 0.000000 0.000004
											CHANNELS 3 Zrotation Yrotation Xrotation
											JOINT LeftHandRing4
											{
												OFFSET 2.651324 0.000007 0.000003
												CHANNELS 3 Zrotation Yrotation Xrotation
												JOINT LeftHandRingEnd
												{
													OFFSET 1.936110 0.077685 -0.000070
													CHANNELS 3 Zrotation Yrotation Xrotation
													End Site
													{
														OFFSET 0.000000 0.000000 0.000000
													}
												}
											}
										}
									}
								}
								JOINT LeftHandPinky1
								{
									OFFSET 2.865500 -0.310004 -1.600378
									CHANNELS 3 Zrotation Yrotation Xrotation
									JOINT LeftHandPinky2
									{
										OFFSET 5.087853 -1.331141 -1.771231
										CHANNELS 3 Zrotation Yrotation Xrotation
										JOINT LeftHandPinky3
										{
											OFFSET 3.070975 0.000003 0.000001
											CHANNELS 3 Zrotation Yrotation Xrotation
											JOINT LeftHandPinky4
											{
												OFFSET 1.549667 0.000000 0.000001
												CHANNELS 3 Zrotation Yrotation Xrotation
												JOINT LeftHandPinkyEnd
												{
													OFFSET 1.944895 -0.157801 0.057219
													CHANNELS 3 Zrotation Yrotation Xrotation
													End Site
													{
														OFFSET 0.000000 0.000000 0.000000
													}
												}
											}
										}
									}
								}
							}
						}
					}
				}
				JOINT RightShoulder
				{
					OFFSET -1.380118 23.180305 5.214158
					CHANNELS 3 Zrotation Yrotation Xrotation
					JOINT RightArm
					{
						OFFSET -15.037197 0.000012 -5.545604
						CHANNELS 3 Zrotation Yrotation Xrotation
						JOINT RightForeArm
						{
							OFFSET -28.736639 0.000002 -0.002597
							CHANNELS 3 Zrotation Yrotation Xrotation
							JOINT RightHand
							{
								OFFSET -27.133619 0.000001 0.002613
								CHANNELS 3 Zrotation Yrotation Xrotation
								JOINT RightHandThumb1
								{
									OFFSET -2.274036 -1.383990 3.163127
									CHANNELS 3 Zrotation Yrotation Xrotation
									JOINT RightHandThumb2
									{
										OFFSET -4.011429 -1.827468 1.640914
										CHANNELS 3 Zrotation Yrotation Xrotation
										JOINT RightHandThumb3
										{
											OFFSET -2.794935 -0.000003 -0.000003
											CHANNELS 3 Zrotation Yrotation Xrotation
											JOINT RightHandThumbEnd
											{
												OFFSET -3.183855 0.000003 -0.000000
												CHANNELS 3 Zrotation Yrotation Xrotation
												End Site
												{
													OFFSET 0.000000 0.000000 0.000000
												}
											}
										}
									}
								}
								JOINT RightHandIndex1
								{
									OFFSET -3.253269 -0.520059 2.282866
									CHANNELS 3 Zrotation Yrotation Xrotation
									JOINT RightHandIndex2
									{
										OFFSET -6.341918 0.012473 0.178265
										CHANNELS 3 Zrotation Yrotation Xrotation
										JOINT RightHandIndex3
										{
											OFFSET -3.654875 -0.000008 -0.000001
											CHANNELS 3 Zrotation Yrotation Xrotation
											JOINT RightHandIndex4
											{
												OFFSET -2.327586 0.000000 -0.000000
												CHANNELS 3 Zrotation Yrotation Xrotation
												JOINT RightHandIndexEnd
												{
													OFFSET -2.761789 -0.180657 -0.113079
													CHANNELS 3 Zrotation Yrotation Xrotation
													End Site
													{
														OFFSET 0.000000 0.000000 0.000000
													}
												}
											}
										}
									}
								}
								JOINT RightHandMiddle1
								{
									OFFSET -3.168105 0.246593 1.001030
									CHANNELS 3 Zrotation Yrotation Xrotation
									JOINT RightHandMiddle2
									{
										OFFSET -6.180829 -0.258836 -1.000896
										CHANNELS 3 Zrotation Yrotation Xrotation
										JOINT RightHandMiddle3
										{
											OFFSET -4.348906 0.000000 -0.000000
											CHANNELS 3 Zrotation Yrotation Xrotation
											JOINT RightHandMiddle4
											{
												OFFSET -3.000244 -0.000002 -0.000003
												CHANNELS 3 Zrotation Yrotation Xrotation
												JOINT RightHandMiddleEnd
												{
													OFFSET -2.302518 -0.294372 -0.031706
													CHANNELS 3 Zrotation Yrotation Xrotation
													End Site
													{
														OFFSET 0.000000 0.000000 0.000000
													}
												}
											}
										}
									}
								}
								JOINT RightHandRing1
								{
									OFFSET -2.885693 -0.067952 -0.308858
									CHANNELS 3 Zrotation Yrotation Xrotation
									JOINT RightHandRing2
									{
										OFFSET -5.854197 -0.486132 -1.373732
										CHANNELS 3 Zrotation Yrotation Xrotation
										JOINT RightHandRing3
										{
											OFFSET -4.338814 -0.000004 -0.000001
											CHANNELS 3 Zrotation Yrotation Xrotation
											JOINT RightHandRing4
											{
												OFFSET -2.654906 -0.000004 0.000003
												CHANNELS 3 Zrotation Yrotation Xrotation
												JOINT RightHandRingEnd
												{
													OFFSET -1.933570 0.077522 -0.000053
													CHANNELS 3 Zrotation Yrotation Xrotation
													End Site
													{
														OFFSET 0.000000 0.000000 0.000000
													}
												}
											}
										}
									}
								}
								JOINT RightHandPinky1
								{
									OFFSET -2.866429 -0.342798 -1.584145
									CHANNELS 3 Zrotation Yrotation Xrotation
									JOINT RightHandPinky2
									{
										OFFSET -5.091370 -1.332054 -1.772385
										CHANNELS 3 Zrotation Yrotation Xrotation
										JOINT RightHandPinky3
										{
											OFFSET -3.062666 -0.000006 0.000000
											CHANNELS 3 Zrotation Yrotation Xrotation
											JOINT RightHandPinky4
											{
												OFFSET -1.546527 0.000006 -0.000003
												CHANNELS 3 Zrotation Yrotation Xrotation
												JOINT RightHandPinkyEnd
												{
													OFFSET -1.945122 -0.157722 0.057211
													CHANNELS 3 Zrotation Yrotation Xrotation
													End Site
													{
														OFFSET 0.000000 0.000000 0.000000
													}
												}
											}
										}
									}
								}
							}
						}
					}
				}
			}
		}
	}
	JOINT LeftLeg
	{
		OFFSET 10.043214 -8.434526 2.595655
		CHANNELS 3 Zrotation Yrotation Xrotation
		JOINT LeftShin
		{
			OFFSET -0.000002 -43.221752 -0.802913
			CHANNELS 3 Zrotation Yrotation Xrotation
			JOINT LeftFoot
			{
				OFFSET 0.000001 -42.155094 -3.481523
				CHANNELS 3 Zrotation Yrotation Xrotation
				JOINT LeftToeBase
				{
					OFFSET 0.000000 -5.059475 13.231529
					CHANNELS 3 Zrotation Yrotation Xrotation
					JOINT LeftToeEnd
					{
						OFFSET -0.009607 -1.647615 6.513017
						CHANNELS 3 Zrotation Yrotation Xrotation
						End Site
						{
							OFFSET 0.000000 0.000000 0.000000
						}
					}
				}
			}
		}
	}
	JOINT RightLeg
	{
		OFFSET -10.047277 -8.295259 2.620317
		CHANNELS 3 Zrotation Yrotation Xrotation
		JOINT RightShin
		{
			OFFSET 0.000001 -43.362209 -0.805555
			CHANNELS 3 Zrotation Yrotation Xrotation
			JOINT RightFoot
			{
				OFFSET 0.000002 -42.117393 -3.478398
				CHANNELS 3 Zrotation Yrotation Xrotation
				JOINT RightToeBase
				{
					OFFSET -0.000001 -5.079609 13.284196
					CHANNELS 3 Zrotation Yrotation Xrotation
					JOINT RightToeEnd
					{
						OFFSET 0.009532 -1.634383 6.460591
						CHANNELS 3 Zrotation Yrotation Xrotation
						End Site
						{
							OFFSET 0.000000 0.000000 0.000000
						}
					}
				}
			}
		}
	}
}
MOTION
Frames: 4
Frame Time: 0.033333
3.308370 97.450912 -2.207792 2.865716 0.616387 2.787395 -0.708199 0.116166 4.944665 -0.237315 -0.243336 -2.826187 -0.561904 -1.667041 6.745865 -2.356067 3.940261 5.203296 -2.212412 -4.950990 -3.531525 0.900874 -6.400280 -9.131113 0.000077 -0.000023 0.000006 0.010444 -0.039110 -0.030451 0.771062 -3.779695 -10.623038 -0.754633 3.710998 -10.650894 4.776929 -8.806423 6.681324 -74.333168 -35.669365 10.627730 179.445190 -41.169052 -179.499130 3.336677 -3.033133 -11.402258 -5.882102 9.861278 0.702590 -10.936858 -0.360576 7.156199 0.000001 8.774817 -0.000002 -16.274920 18.695112 6.102888 -1.844031 2.498502 -2.507275 -10.163591 4.678941 4.621103 -20.975996 -0.000005 0.000003 -21.226254 2.451694 -3.593992 0.000001 -0.000006 -0.000002 -1.362680 2.240797 -0.746323 -21.334890 0.584910 3.008320 -13.821198 -0.000002 0.000004 -23.887131 -0.249077 -0.839480 -61.735497 2.511925 -1.568700 -0.294026 1.679686 0.833256 -14.218190 0.093214 1.300580 -34.212006 -0.287562 0.967171 -20.033180 0.964536 1.212841 -0.000000 0.000001 -0.000001 -3.440384 0.788233 0.501657 -15.928167 -3.167307 2.999703 -6.338817 -0.000001 0.000003 -18.123413 3.648177 -4.905662 -0.000004 -0.000000 -0.000001 -3.128637 15.755631 5.559706 65.790817 37.203350 -0.786134 -177.981735 50.085884 -178.850082 -3.163425 5.806687 -0.987346 2.243541 -5.255033 -3.180156 14.282878 -0.826593 6.952495 -0.000003 -12.690592 -0.000001 16.965218 -18.646124 2.665096 1.665665 -1.955921 -2.878297 4.727793 -4.170583 4.993918 11.020509 0.000003 -0.000001 12.109034 -3.735710 -2.866780 -0.000000 0.000000 0.000001 1.291985 -1.928548 -1.498088 14.800113 0.567468 3.865603 14.242556 -1.341735 -6.660648 19.631941 0.143926 -0.648244 51.242683 -0.779921 -6.301877 0.353029 -1.511150 -0.031940 20.222773 3.684306 2.316629 18.787245 0.000004 -0.000000 10.751611 -0.479868 1.397902 -0.000000 0.000000 0.000002 3.273806 0.305947 -0.580111 21.486795 11.830365 2.266132 8.162916 0.000002 0.000001 18.399052 -3.798980 -4.940570 0.000003 0.000000 -0.000002 -1.249084 9.450232 -1.933938 0.129046 -0.418701 16.933695 -7.674304 17.539465 -18.177269 1.665346 -2.092606 -0.498383 -0.000000 0.000000 0.000002 -10.719424 2.837825 -27.112173 -0.005050 0.466687 18.158216 7.227561 -7.044085 5.718510 -1.435179 0.921874 0.168465 -0.000000 0.000000 -0.000001 
3.089811 97.435677 -2.048554 3.018965 0.704753 2.888537 -0.761478 0.099743 5.052636 -0.229095 -0.270416 -2.826385 -0.625736 -1.676679 6.755587 -2.085842 3.836038 5.179742 -2.284712 -4.974193 -3.531595 0.967855 -6.448036 -9.132481 0.000077 -0.000022 0.000006 0.009996 0.002913 -0.023818 0.760130 -3.731732 -10.607080 -0.744764 3.750829 -10.642065 4.832488 -8.927434 6.649614 -74.376495 -35.647720 10.594152 179.326096 -41.138226 -179.585464 3.437207 -3.468031 -12.050868 -5.882102 9.861278 0.702589 -10.936858 -0.360576 7.156196 0.000002 8.774814 -0.000002 -16.311493 18.718431 6.099786 -1.844031 2.498501 -2.507277 -10.163590 4.678936 4.621103 -20.975996 -0.000006 0.000004 -21.226254 2.451691 -3.593993 0.000001 -0.000006 -0.000001 -1.362680 2.240797 -0.746322 -21.334885 0.584907 3.008322 -13.821197 -0.000003 0.000003 -23.887133 -0.249077 -0.839479 -61.824780 2.475499 -1.648282 -0.294024 1.679685 0.833255 -14.218195 0.093214 1.300579 -34.211998 -0.287564 0.967174 -20.033180 0.964536 1.212845 -0.000001 -0.000001 0.000002 -3.440384 0.788231 0.501656 -15.928169 -3.167307 2.999705 -6.338817 -0.000000 0.000002 -18.123413 3.648174 -4.905663 -0.000004 -0.000000 -0.000003 -3.278325 15.643443 5.389843 65.678276 37.454132 -1.265452 -178.505966 49.726948 -179.099701 -3.210878 5.801307 -0.917798 2.243541 -5.255034 -3.180156 14.282877 -0.826591 6.952495 -0.000004 -12.690592 -0.000000 16.859200 -18.507763 2.728217 1.665665 -1.955920 -2.878297 4.727792 -4.170581 4.993918 11.020511 0.000003 -0.000001 12.109031 -3.735708 -2.866780 -0.000001 -0.000000 0.000000 1.291984 -1.928548 -1.498088 14.800111 0.567470 3.865604 14.242553 -1.341735 -6.660650 19.631935 0.143927 -0.648243 51.188168 -0.760584 -6.212445 0.353029 -1.511149 -0.031940 20.222765 3.684308 2.316629 18.787243 0.000005 -0.000000 10.751608 -0.479867 1.397905 -0.000000 0.000000 0.000001 3.273804 0.305947 -0.580109 21.486790 11.830365 2.266133 8.162914 0.000003 0.000002 18.399050 -3.798979 -4.940566 0.000003 -0.000001 -0.000002 -1.231992 9.503473 -1.937884 0.103902 -0.446150 16.931942 -7.811685 17.427650 -18.064516 1.660184 -2.112348 -0.461309 -0.000000 0.000000 0.000002 -10.780042 2.850647 -27.444609 -0.013240 0.381825 18.856289 7.210108 -6.932934 5.268671 -1.431332 0.917933 0.093317 0.000000 -0.000000 -0.000001 
2.858474 97.490967 -1.849997 3.080542 0.798412 3.046657 -0.790159 0.070978 5.049977 -0.230881 -0.296250 -2.844090 -0.637016 -1.741240 6.775830 -1.715409 3.594474 5.317991 -2.287450 -4.920448 -3.530888 0.983454 -6.407778 -9.097769 0.000077 -0.000023 0.000006 0.005520 0.017062 -0.015755 0.747478 -3.711237 -10.592056 -0.743010 3.754015 -10.638512 4.811831 -9.056157 6.612794 -74.391785 -35.455097 10.441378 179.337814 -41.231861 -179.727219 3.584343 -3.878286 -12.544227 -5.882101 9.861275 0.702591 -10.936859 -0.360575 7.156197 0.000002 8.774810 0.000000 -16.237808 18.704454 6.088877 -1.844029 2.498502 -2.507275 -10.163589 4.678939 4.621104 -20.975998 -0.000003 0.000001 -21.226254 2.451692 -3.593995 0.000000 -0.000007 -0.000002 -1.362679 2.240796 -0.746322 -21.334888 0.584909 3.008319 -13.821197 -0.000002 0.000001 -23.887131 -0.249079 -0.839481 -61.759346 2.469534 -1.636954 -0.294024 1.679686 0.833256 -14.218192 0.093214 1.300578 -34.211998 -0.287566 0.967169 -20.033180 0.964533 1.212842 -0.000000 0.000000 0.000000 -3.440386 0.788233 0.501657 -15.928165 -3.167305 2.999702 -6.338818 -0.000000 0.000003 -18.123411 3.648175 -4.905662 -0.000004 0.000001 -0.000001 -3.320773 15.430481 5.313524 65.410263 37.903259 -1.858630 -179.007660 49.413624 -179.421539 -3.342383 5.736560 -0.981930 2.243539 -5.255031 -3.180155 14.282875 -0.826592 6.952496 -0.000004 -12.690590 0.000000 16.752325 -18.456047 2.750182 1.665665 -1.955918 -2.878297 4.727795 -4.170582 4.993919 11.020512 0.000004 0.000000 12.109030 -3.735710 -2.866778 -0.000000 -0.000000 0.000000 1.291985 -1.928547 -1.498087 14.800111 0.567467 3.865603 14.242553 -1.341733 -6.660648 19.631937 0.143928 -0.648243 51.149044 -0.767811 -6.174235 0.353029 -1.511150 -0.031940 20.222771 3.684306 2.316628 18.787245 0.000005 -0.000002 10.751610 -0.479868 1.397902 -0.000001 0.000000 0.000001 3.273804 0.305947 -0.580109 21.486788 11.830362 2.266131 8.162916 0.000001 0.000001 18.399052 -3.798979 -4.940567 0.000005 -0.000002 -0.000001 -1.100660 9.655419 -1.757984 0.091504 -0.473508 16.466330 -8.063034 17.227673 -17.768225 1.654027 -2.102323 -0.394423 0.000000 -0.000001 0.000002 -10.661783 2.604012 -27.549669 0.009774 0.346679 19.049610 7.021898 -6.589729 5.076971 -1.430525 0.929135 0.026488 -0.000000 -0.000000 -0.000001 
2.501064 97.588860 -1.551144 2.998792 0.834030 3.295010 -0.758626 0.051937 4.947956 -0.230936 -0.332156 -2.861883 -0.571290 -1.864337 6.729404 -1.212696 3.314957 5.593533 -2.237091 -4.852878 -3.539318 0.951052 -6.310173 -8.993889 0.000077 -0.000023 0.000006 0.004149 0.022549 -0.013634 0.740690 -3.704215 -10.579167 -0.739944 3.742864 -10.633694 4.810891 -9.143514 6.562529 -74.551781 -35.177055 10.224434 179.531616 -41.430763 -179.896088 3.810779 -4.197253 -12.981373 -5.882101 9.861279 0.702589 -10.936856 -0.360577 7.156198 -0.000000 8.774815 -0.000002 -16.105318 18.699699 6.086779 -1.844032 2.498502 -2.507277 -10.163589 4.678939 4.621103 -20.975994 -0.000006 0.000002 -21.226246 2.451692 -3.593993 0.000000 -0.000006 -0.000003 -1.362680 2.240796 -0.746322 -21.334887 0.584905 3.008319 -13.821195 -0.000004 0.000002 -23.887131 -0.249080 -0.839481 -61.634838 2.501889 -1.595968 -0.294024 1.679686 0.833256 -14.218192 0.093211 1.300582 -34.211998 -0.287567 0.967175 -20.033175 0.964533 1.212844 -0.000000 0.000000 0.000001 -3.440385 0.788233 0.501657 -15.928169 -3.167309 2.999703 -6.338817 -0.000001 0.000003 -18.123411 3.648174 -4.905660 -0.000004 -0.000000 -0.000003 -3.333421 15.175710 5.219841 64.980881 38.422127 -2.542450 -179.398621 49.071701 -179.705154 -3.503290 5.640411 -1.138104 2.243540 -5.255033 -3.180156 14.282875 -0.826592 6.952497 -0.000002 -12.690590 0.000000 16.696733 -18.430096 2.749714 1.665664 -1.955920 -2.878296 4.727795 -4.170583 4.993919 11.020508 0.000003 -0.000001 12.109031 -3.735708 -2.866781 -0.000001 -0.000000 0.000000 1.291985 -1.928550 -1.498088 14.800111 0.567468 3.865603 14.242553 -1.341735 -6.660648 19.631939 0.143925 -0.648245 51.146122 -0.831332 -6.188231 0.353028 -1.511151 -0.031940 20.222769 3.684307 2.316627 18.787245 0.000005 -0.000002 10.751609 -0.479867 1.397904 -0.000001 0.000000 0.000001 3.273803 0.305948 -0.580109 21.486792 11.830362 2.266132 8.162914 0.000001 0.000000 18.399054 -3.798980 -4.940569 0.000004 -0.000000 -0.000002 -0.739641 9.864244 -1.406903 0.096160 -0.497236 15.578737 -8.462171 17.048296 -17.383944 1.652418 -2.103613 -0.398965 0.000000 0.000000 0.000002 -10.243081 2.255939 -27.601667 0.016848 0.317400 19.041704 6.742482 -6.115509 4.951942 -1.432372 0.943407 -0.010045 0.000000 0.000000 -0.000001 
